<svg id="Layer_1" data-name="Layer 1" xmlns="http://www.w3.org/2000/svg" viewBox="0 0 439.52 432"><defs><style>.cls-1{fill:#fff;}.cls-2{fill:#006db6;}.cls-3{fill:none;stroke:#fff;}</style></defs><g id="MAin-Logo"><g id="Group-2"><path id="Path" class="cls-1" d="M63,370.18a20.1,20.1,0,0,0-6.77-1.72,18,18,0,0,0-6.78,1.72,24.77,24.77,0,0,1,6.75-1.43A21.13,21.13,0,0,1,63,370.18Z"/><path id="Shape" class="cls-1" d="M56.54,325l2.5,40.6a11.38,11.38,0,0,0-5.85,0L55.68,325h-54V432H50c.8-15.23,1.56-29.82,2-38.27.26-4.79.41-7.67.41-7.67s.34-2.68,4.06-2.68a3.7,3.7,0,0,1,3.65,2.68c0,.16.18,3,.47,7.59.52,8.44,1.41,23.08,2.36,38.35h45.58V325Zm-8.85,45.76.08-.12a8.42,8.42,0,0,1,5.36-4.27,8.19,8.19,0,0,1,1.4-.35h.08a9.43,9.43,0,0,1,3,0h.08a8.76,8.76,0,0,1,6.76,4.58l.09.13a8.72,8.72,0,0,1,3.23,6.61,7.75,7.75,0,0,1-.21,1.79c-1.5-4.06-6.05-7-11.45-7s-9.94,3-11.45,7a8.32,8.32,0,0,1-.2-1.79A8.66,8.66,0,0,1,47.69,370.75Zm14,22.47c-.28-4.46-.45-7.14-.46-7.34a4.84,4.84,0,0,0-4.81-3.67c-4.81,0-5.21,3.69-5.22,3.76s-.14,2.75-.39,7.35c-4-1.62-6.7-5-6.7-8.91,0-5.51,5.35-10,12-10s12,4.46,12,10C68.12,388.23,65.51,391.55,61.69,393.22Z"/><path id="Path-2" data-name="Path" class="cls-1" d="M187.94,346.61c-5.35,0-7.82,3.25-7.82,10.89v7.62c0,7.64,2.48,10.88,7.82,10.88s7.92-3.24,7.92-10.88V357.5C195.86,349.86,193.3,346.61,187.94,346.61Z"/><path id="Path-3" data-name="Path" class="cls-1" d="M291.41,404.21c-.22,0-.29.13-.33.36l-1.45,6.55h3.56l-1.44-6.55C291.67,404.35,291.62,404.21,291.41,404.21Z"/><path id="Path-4" data-name="Path" class="cls-1" d="M239.77,352.79V352c0-3.89-3-5.67-8.35-5.67-.89,0-4.2.13-5,.19v12.23c.71.07,3.83.14,4.52.14C237.69,358.87,239.77,357.09,239.77,352.79Z"/><path id="Path-5" data-name="Path" class="cls-1" d="M325.07,404.21c-.22,0-.29.13-.33.36l-1.46,6.55h3.57l-1.47-6.55C325.32,404.35,325.28,404.21,325.07,404.21Z"/><path id="Path-6" data-name="Path" class="cls-1" d="M284.92,365.12V357.5c0-7.64-2.54-10.89-7.89-10.89s-7.83,3.25-7.83,10.89v7.62c0,7.64,2.48,10.88,7.83,10.88S284.92,372.73,284.92,365.12Z"/><path id="Path-7" data-name="Path" class="cls-1" d="M234.89,404.41c-2,0-2.92,1.21-2.92,4.06v2.82c0,2.85.89,4.06,2.92,4.06s2.94-1.21,2.94-4.06v-2.82C237.83,405.62,236.89,404.41,234.89,404.41Z"/><path id="Path-8" data-name="Path" class="cls-1" d="M407.26,376c5.35,0,7.9-3.25,7.9-10.89V357.5c0-7.64-2.56-10.89-7.9-10.89s-7.86,3.25-7.86,10.89v7.62C399.4,372.73,401.9,376,407.26,376Z"/><path id="Path-9" data-name="Path" class="cls-1" d="M199.12,404.41c-2,0-2.93,1.21-2.93,4.06v2.82c0,2.85.9,4.06,2.93,4.06s2.94-1.21,2.94-4.06v-2.82C202.06,405.62,201.12,404.41,199.12,404.41Z"/><path id="Path-10" data-name="Path" class="cls-1" d="M182.31,404.41c-2,0-2.92,1.21-2.92,4.06v2.82c0,2.85.89,4.06,2.92,4.06s2.95-1.21,2.95-4.06v-2.82C185.26,405.62,184.31,404.41,182.31,404.41Z"/><path id="Shape-2" data-name="Shape" class="cls-1" d="M117.32,325V432H439.53V325ZM388.43,357.5c0-14.78,8.34-20.45,18.86-20.45s18.86,5.67,18.86,20.45v7.62c0,14.77-8.35,20.44-18.85,20.44s-18.9-5.69-18.9-20.44ZM135.21,418.91a17.23,17.23,0,0,1-4.46-.53c-.24-.06-.48-.2-.48-.47v-2.33a.44.44,0,0,1,.11-.33.38.38,0,0,1,.32-.12h.07c1,.1,3.57.29,4.52.29,1.64,0,2.11-.52,2.11-1.66,0-.68-.33-1.07-1.57-1.78L132.56,410c-2.21-1.32-2.8-2.8-2.8-4.53,0-2.62,1.47-4.63,6.07-4.63a26.57,26.57,0,0,1,5,.51.44.44,0,0,1,.36.43v2.4a.41.41,0,0,1-.1.3.37.37,0,0,1-.3.1h0c-.67,0-3.42-.26-5-.26-1.35,0-1.85.4-1.85,1.26,0,.66.31,1,1.59,1.66l3,1.64c2.47,1.32,3.2,2.89,3.2,4.82C141.67,416.22,140,418.91,135.21,418.91ZM142,383.68V346.61H131.6a1.23,1.23,0,0,1-.89-.34,1.19,1.19,0,0,1-.37-.87v-6.56a1.23,1.23,0,0,1,1.26-1.22h31.61a1.27,1.27,0,0,1,1.33,1.22v6.56a1.22,1.22,0,0,1-.41.88,1.25,1.25,0,0,1-.92.33H152.88v37.07a1.29,1.29,0,0,1-1.27,1.28h-8.34A1.28,1.28,0,0,1,142,383.68Zm13.29,20.39a.42.42,0,0,1-.46.48h-.07c-.89-.07-2.2-.2-3.51-.2-1.63,0-2.94.9-2.94,4v3c0,3.16,1.31,4,2.94,4,1.31,0,2.61-.12,3.51-.19h.07a.45.45,0,0,1,.35.13.43.43,0,0,1,.11.34V418c0,.34-.19.46-.53.56a13.75,13.75,0,0,1-3.56.4c-3.62,0-7-1.9-7-7.55v-3c0-5.65,3.41-7.52,7-7.52a13.33,13.33,0,0,1,3.56.4c.34.09.53.19.53.52Zm16.84,14.15a.47.47,0,0,1-.47.47h-3.1a.48.48,0,0,1-.48-.47v-6.86h-5.89v6.86a.47.47,0,0,1-.47.47h-3.1a.47.47,0,0,1-.47-.47V401.51a.47.47,0,0,1,.14-.33.45.45,0,0,1,.33-.12h3.12a.45.45,0,0,1,.33.12.47.47,0,0,1,.14.33v6.31h5.86v-6.31a.45.45,0,0,1,.48-.45h3.1a.42.42,0,0,1,.33.12.53.53,0,0,1,.15.33Zm17.22-6.93c0,5.51-3.11,7.62-7,7.62s-7-2.11-7-7.62v-2.82c0-5.52,3.11-7.62,7-7.62s7,2.1,7,7.62Zm16.81,0c0,5.51-3.12,7.62-7,7.62s-7-2.11-7-7.62v-2.82c0-5.52,3.11-7.62,7-7.62s7,2.1,7,7.62Zm.62-46.17c0,14.77-8.34,20.44-18.86,20.44s-18.82-5.69-18.82-20.44V357.5c0-14.78,8.35-20.45,18.85-20.45s18.83,5.67,18.83,20.45Zm12.64,53c0,.31-.15.42-.48.49a24,24,0,0,1-3.87.32c-3.06,0-5.79-.79-5.79-5.11V401.54a.48.48,0,0,1,.48-.48h3.1a.48.48,0,0,1,.48.48v12.27c0,1.24.4,1.61,1.51,1.61h4.09a.48.48,0,0,1,.48.47Zm7-34.42a1.28,1.28,0,0,1-1.27,1.28h-8.29a1.28,1.28,0,0,1-1.18-1.31V340.94c0-2.17.89-2.74,2.86-3.06a101.7,101.7,0,0,1,12.93-.83c10.84,0,19.18,3.64,19.18,14.91v.83c0,6.75-3.56,10.9-8.22,12.74l9.62,18a1.53,1.53,0,0,1,.19.7c0,.45-.25.76-.95.76h-9.75c-.7,0-1-.63-1.28-1.28l-8.53-16.11-.7.06c-1.33,0-3.31-.12-4.53-.12Zm15.45,27.65c0,5.5-3.11,7.61-7,7.61s-7-2.11-7-7.61v-2.89c0-5.52,3.11-7.62,7-7.62s7,2.1,7,7.62Zm13.94-7.5a.47.47,0,0,1-.47.48h-4.82c-1.11,0-1.52.37-1.52,1.6v2.14h6.15a.48.48,0,0,1,.47.48v2.26a.47.47,0,0,1-.47.47H249v6.93a.47.47,0,0,1-.47.47h-3.1a.47.47,0,0,1-.47-.47V405.94c0-4.31,2.73-5.07,5.8-5.07a25.88,25.88,0,0,1,4.57.31c.34,0,.48.16.48.47Zm2.34-38.74V357.5c0-14.78,8.35-20.45,18.87-20.45s18.85,5.67,18.85,20.45v7.62c0,14.77-8.34,20.44-18.85,20.44S258.16,379.87,258.16,365.12Zm23.4,53.27c0,.26-.22.33-.41.33H278a.43.43,0,0,1-.38-.47v-9.93c0-.17-.07-.18-.12-.18s-.12,0-.19.16l-2.14,3.91a.75.75,0,0,1-.71.4h-1.9a.76.76,0,0,1-.71-.4l-2.13-3.91c-.07-.12-.13-.16-.2-.16s-.11,0-.11.18v9.9a.43.43,0,0,1-.39.47h-3.13c-.18,0-.4-.07-.4-.33V401.87a.8.8,0,0,1,.26-.61.77.77,0,0,1,.63-.2h2.23a1.1,1.1,0,0,1,1.05.64l3.63,6.77c.09.18.16.3.26.3s.16-.12.26-.3l3.6-6.79a1.07,1.07,0,0,1,1-.64h2.23a.8.8,0,0,1,.64.21.81.81,0,0,1,.25.63Zm16.94.33h-3.33a.49.49,0,0,1-.47-.43l-.89-3.89H289l-.89,3.89a.51.51,0,0,1-.49.43h-3.21a.35.35,0,0,1-.29-.1.36.36,0,0,1-.12-.27v-.13l3.57-14.71c.55-2.29,2.32-2.68,4-2.68s3.37.35,3.92,2.68L299,418.22v.13a.37.37,0,0,1-.14.29.36.36,0,0,1-.33.05Zm16.74-.89a.9.9,0,0,1-.28.65.89.89,0,0,1-.66.24H312a1.23,1.23,0,0,1-1.24-.74l-5.45-9.37c-.09-.14-.14-.19-.21-.19s-.12,0-.12.19v9.61a.47.47,0,0,1-.47.47h-2.8a.47.47,0,0,1-.47-.47V402a.89.89,0,0,1,.89-.89h2.4c.47,0,.7.24,1,.74l5.62,9.81c.1.15.13.2.19.2s.13-.05.13-.22V401.51a.47.47,0,0,1,.14-.33.45.45,0,0,1,.33-.12h2.8a.45.45,0,0,1,.48.45Zm16.94.89h-3.32a.51.51,0,0,1-.48-.43l-.84-3.89h-4.87l-.9,3.89a.49.49,0,0,1-.47.43H318a.35.35,0,0,1-.29-.1.36.36,0,0,1-.12-.27v-.13l3.57-14.71c.55-2.29,2.3-2.68,3.94-2.68s3.37.35,3.92,2.68l3.57,14.71v.13a.42.42,0,0,1-.14.27.38.38,0,0,1-.29.07Zm-2-35.77-14.52-25.07c-.25-.38-.38-.5-.57-.5s-.32.12-.32.5v25.8A1.28,1.28,0,0,1,313.5,385H306a1.27,1.27,0,0,1-1.27-1.28V340.05a2.41,2.41,0,0,1,2.41-2.43h6.44c1.28,0,1.91.64,2.68,2l15.09,26.25c.26.38.32.51.51.51s.32-.13.32-.57v-27a1.26,1.26,0,0,1,.39-.88,1.23,1.23,0,0,1,.89-.34H341a1.23,1.23,0,0,1,.89.34,1.21,1.21,0,0,1,.38.88v43.69a2.48,2.48,0,0,1-2.49,2.42h-6.24A3.31,3.31,0,0,1,330.19,383ZM347,404.27c0,.25-.14.3-.34.3h-.07c-1.15,0-2.93-.19-4.95-.19s-3.11.89-3.11,4v3c0,3.28,1.5,4,2.68,4a13.91,13.91,0,0,0,1.78-.07v-5.46a.45.45,0,0,1,.46-.48h3a.49.49,0,0,1,.48.48v8c0,.34-.12.48-.48.55a26,26,0,0,1-5.35.5c-2.68,0-6.76-1.55-6.76-7.55v-2.94c0-6.05,3.77-7.57,7.2-7.57a22.46,22.46,0,0,1,5,.54.36.36,0,0,1,.4.36Zm14.23-.43a.47.47,0,0,1-.47.47h-4.83c-1.11,0-1.51.37-1.51,1.61v2.16h6.14a.48.48,0,0,1,.34.14.48.48,0,0,1,.13.34v2.26a.47.47,0,0,1-.47.47h-6.14v2.52c0,1.24.4,1.61,1.51,1.61h4.83a.47.47,0,0,1,.47.47v2.22c0,.3-.14.44-.47.49a28.5,28.5,0,0,1-4.61.31c-3.06,0-5.77-.79-5.77-5.1v-7.89c0-4.31,2.72-5.07,5.79-5.07a29.33,29.33,0,0,1,4.59.3c.33,0,.47.16.47.48Zm19.27,14.52c0,.26-.21.33-.4.33H377a.43.43,0,0,1-.39-.47v-9.9c0-.17-.07-.18-.12-.18s-.12,0-.19.16l-2.13,3.91a.76.76,0,0,1-.71.4h-1.9a.75.75,0,0,1-.71-.4l-2.15-3.91c-.07-.12-.11-.16-.18-.16s-.12,0-.12.18v9.9a.43.43,0,0,1-.37.47h-3.14c-.19,0-.4-.07-.4-.33V401.87a.74.74,0,0,1,.26-.61.77.77,0,0,1,.63-.2h2.23a1.09,1.09,0,0,1,1,.64l3.63,6.77c.1.18.17.3.26.3s.17-.12.27-.3l3.59-6.79a1.09,1.09,0,0,1,1-.64h2.23a.79.79,0,0,1,.64.21.86.86,0,0,1,.26.63Zm3.36-73a1.28,1.28,0,0,1-1.34,1.21H372.2v37.07a1.3,1.3,0,0,1-1.28,1.28h-8.35a1.27,1.27,0,0,1-1.27-1.28V346.61H350.91a1.23,1.23,0,0,1-.89-.34,1.24,1.24,0,0,1-.38-.87v-6.56a1.23,1.23,0,0,1,1.27-1.22h31.6a1.3,1.3,0,0,1,1.34,1.22Zm11,58.44a.47.47,0,0,1-.47.47h-4.82c-1.11,0-1.51.37-1.51,1.61v2.16h6.14a.48.48,0,0,1,.47.48v2.26a.47.47,0,0,1-.47.47H388v2.52c0,1.24.4,1.61,1.51,1.61h4.82a.47.47,0,0,1,.47.47v2.22c0,.3-.14.44-.47.49a28.25,28.25,0,0,1-4.59.31c-3.07,0-5.78-.79-5.78-5.1v-7.89c0-4.31,2.73-5.07,5.79-5.07a29.29,29.29,0,0,1,4.58.3c.33,0,.47.16.47.48Zm17.21,14a.89.89,0,0,1-.89.9h-2.33a1.26,1.26,0,0,1-1.24-.74l-5.4-9.35c-.1-.14-.14-.19-.22-.19s-.12,0-.12.19v9.61a.48.48,0,0,1-.47.48H398.5a.49.49,0,0,1-.48-.48V402a.89.89,0,0,1,.89-.89h2.4c.48,0,.72.24,1,.74l5.62,9.81c.1.15.12.2.19.2s.12-.05.12-.22V401.51a.52.52,0,0,1,.14-.33.45.45,0,0,1,.33-.12h2.81a.45.45,0,0,1,.33.12.52.52,0,0,1,.14.33ZM427.28,404a.49.49,0,0,1-.51.46h-3.84v13.81a.47.47,0,0,1-.47.47h-3.11a.48.48,0,0,1-.48-.47V404.41H415a.5.5,0,0,1-.34-.13.44.44,0,0,1-.14-.33v-2.44a.47.47,0,0,1,.14-.33.49.49,0,0,1,.34-.12h11.76a.48.48,0,0,1,.51.45Z"/></g></g><circle class="cls-1" cx="68.93" cy="68.93" r="51.78" transform="translate(-14.9 118.69) rotate(-75.69)"/><polygon class="cls-1" points="213.26 91.53 213.26 28.23 201.86 28.23 201.86 71.37 201.69 71.37 176.78 28.23 164.16 28.23 164.16 91.53 175.56 91.53 175.56 46.46 175.73 46.46 201.6 91.53 213.26 91.53"/><rect class="cls-1" x="223.62" y="45.94" width="10.88" height="45.59"/><rect class="cls-1" x="223.62" y="27.35" width="10.88" height="10.17"/><path class="cls-1" d="M327,45.07c-5.17-.18-8.6,1.22-10.7,4a18.29,18.29,0,0,0-11.22-4c-11.84,0-18,7.88-18,15.86,0,5.53,3,9,6.76,12.1-2,.62-7.11,4-7.11,8.34,0,4.91,4.65,6,6.75,7.36v.17a8,8,0,0,0-8.24,8.42,8.33,8.33,0,0,0,3.51,6.83v59.73h10.87v-56a50.58,50.58,0,0,0,6,.34c14.55,0,21.13-7,21.13-13.51,0-18.24-30-8.24-30-15.61,0-2.63,3.77-2.8,8.51-2.8,11.39,0,17.18-6.14,17.18-14.74A13.32,13.32,0,0,0,320,53.48c1.67-1,4.47-1,7-1ZM303,90.66c10.53,0,13.77,3.16,13.77,5.26,0,1.58-2.37,5.09-9.39,5.09-9.11,0-12.09-1.58-12.09-5.09C295.27,94,297,90.66,303,90.66Zm2-22.45a7.54,7.54,0,1,1,7.45-7.54A7.51,7.51,0,0,1,305,68.21Z"/><path class="cls-1" d="M365.78,85V63.48c0-13.68-5.27-18.15-17.54-18.41-6.67-.18-14.21,3.5-17,8.32l7,5.35c2.1-2.89,4.91-5.61,10-5.61,3.85,0,6.66,1.93,6.66,5.44v3.85c-17.71,2.11-26.13,7.54-26.13,17.89,0,6.22,4.12,12.1,12.36,12.1,5.71,0,9.82-1.84,14.21-4.82l.7,4h10.61A20.3,20.3,0,0,1,365.78,85ZM354.9,79.52c-2.28,1.93-6.58,4.83-10,4.83A5,5,0,0,1,339.64,79c0-6.41,8-7.9,15.26-9.3Z"/><path class="cls-1" d="M278.9,85V63.48c0-13.68-5.26-18.15-17.53-18.41-6.67-.18-14.21,3.5-17,8.32l7,5.35c2.1-2.89,4.91-5.61,10-5.61,3.85,0,6.66,1.93,6.66,5.44v3.85C250.32,64.53,241.9,70,241.9,80.31c0,6.22,4.13,12.1,12.36,12.1,5.71,0,9.83-1.84,14.21-4.82l.7,4h10.61A20.3,20.3,0,0,1,278.9,85ZM268,79.52c-2.28,1.93-6.58,4.83-10,4.83A5,5,0,0,1,252.77,79c0-6.41,8-7.9,15.26-9.3Z"/><path class="cls-1" d="M397,56.46a11.9,11.9,0,0,1,1.92.09V45.07c-6.48.17-10.16,3.24-12.8,8.68H386V45.94H376v45.6h10.87V63.83C386.82,62.69,391.56,56.46,397,56.46Z"/><path class="cls-1" d="M437.51,85V63.48c0-13.68-5.26-18.15-17.54-18.41-6.66-.18-14.21,3.5-17,8.32l7,5.35c2.1-2.89,4.91-5.61,10-5.61,3.86,0,6.67,1.93,6.67,5.44v3.85c-17.72,2.11-26.13,7.54-26.13,17.89,0,6.22,4.12,12.1,12.36,12.1,5.7,0,9.82-1.84,14.2-4.82l.71,4h10.61A20,20,0,0,1,437.51,85Zm-10.87-5.44c-2.28,1.93-6.58,4.83-10,4.83A5,5,0,0,1,411.38,79c0-6.41,8-7.9,15.26-9.3Z"/><path class="cls-1" d="M159.69,132.23c0,20.7,9.29,32.53,25.42,32.53,11.58,0,19.82-5.61,23.59-16.57l-11.22-3c-3.6,7.45-6.93,9.39-12.37,9.39-9.11,0-13.5-7.54-13.32-22.37,0-14.82,4.91-22.36,13-22.36,6,0,9.73,3.78,11.49,9.12l11-2.63c-3-11.22-10-16.66-22.1-16.66C169,99.7,159.69,111.54,159.69,132.23Z"/><path class="cls-1" d="M233.61,117.41c-12.36,0-19.81,9.21-19.81,23.68s7.45,23.67,19.81,23.67,19.82-9.2,19.82-23.67S246,117.41,233.61,117.41Zm0,38.59c-6.05,0-8.94-4.74-8.94-14.91s2.89-14.91,8.94-14.91,8.95,4.74,8.95,14.91S239.66,156,233.61,156Z"/><rect class="cls-1" x="263.35" y="100.58" width="10.87" height="63.3"/><path class="cls-1" d="M348,138.37c0-11-6.66-21-18.59-21-12.36,0-19.81,9.21-19.81,23.68s7.45,23.67,19.28,23.67c8.77,0,14.91-2.8,19.12-9.29l-7.89-4.91c-2.72,3.16-5.09,5.44-10.17,5.44s-9.3-3.69-9.47-13.16H348Zm-27.53-2.89c.17-6.32,3.5-10,8.77-10s8.59,3.68,8.76,10Z"/><path class="cls-1" d="M438.65,138.37c0-11-6.67-21-18.59-21-12.36,0-19.82,9.21-19.82,23.68s7.46,23.67,19.29,23.67c8.77,0,14.91-2.8,19.12-9.29l-7.89-4.91c-2.72,3.16-5.09,5.44-10.17,5.44s-9.3-3.69-9.47-13.16h27.53Zm-27.53-2.89c.17-6.32,3.5-10,8.76-10s8.6,3.68,8.77,10Z"/><path class="cls-1" d="M159.69,204.58c0,20.7,9.29,32.54,25.42,32.54,11.58,0,19.82-5.61,23.59-16.58l-11.22-3c-3.6,7.46-6.93,9.38-12.37,9.38-9.11,0-13.5-7.53-13.32-22.36,0-14.81,4.91-22.35,13-22.35,6,0,9.73,3.77,11.49,9.12l11-2.63c-3-11.23-10-16.67-22.1-16.67C169,172.05,159.69,183.9,159.69,204.58Z"/><path class="cls-1" d="M249.22,229.66V208.18c0-13.67-5.26-18.15-17.54-18.41-6.66-.18-14.2,3.51-17,8.33l7,5.35c2.11-2.9,4.91-5.62,10-5.62,3.86,0,6.67,1.93,6.67,5.44v3.86c-17.71,2.1-26.13,7.54-26.13,17.89,0,6.22,4.12,12.1,12.36,12.1,5.7,0,9.82-1.84,14.21-4.83l.7,4H250.1A20.3,20.3,0,0,1,249.22,229.66Zm-10.87-5.43c-2.28,1.92-6.57,4.82-10,4.82a5,5,0,0,1-5.26-5.35c0-6.4,8-7.89,15.26-9.3Z"/><path class="cls-1" d="M261,236.24h10.87V203.35A13.89,13.89,0,0,1,282,198.54c3.69,0,5.62,1.93,5.62,8.06v29.64h10.87V205c0-9.29-4.39-15.25-13.51-15.25-5.34,0-10,3-14,5.78v-4.9H261Z"/><path class="cls-1" d="M343.59,229.66V208.18c0-13.67-5.27-18.15-17.54-18.41-6.67-.18-14.21,3.51-17,8.33l7,5.35c2.11-2.9,4.91-5.62,10-5.62,3.85,0,6.66,1.93,6.66,5.44v3.86c-17.71,2.1-26.13,7.54-26.13,17.89,0,6.22,4.12,12.1,12.36,12.1,5.71,0,9.83-1.84,14.21-4.83l.7,4h10.61A20.3,20.3,0,0,1,343.59,229.66Zm-10.88-5.43c-2.28,1.92-6.58,4.82-10,4.82a5,5,0,0,1-5.27-5.35c0-6.4,8-7.89,15.26-9.3Z"/><path class="cls-1" d="M438,229.66V208.18c0-13.67-5.26-18.15-17.54-18.41-6.66-.18-14.2,3.51-17,8.33l7,5.35c2.1-2.9,4.91-5.62,10-5.62,3.86,0,6.66,1.93,6.66,5.44v3.86C409.36,209.23,401,214.67,401,225c0,6.22,4.12,12.1,12.36,12.1,5.7,0,9.82-1.84,14.21-4.83l.7,4h10.6A20.58,20.58,0,0,1,438,229.66Zm-10.88-5.43c-2.27,1.92-6.57,4.82-10,4.82a5,5,0,0,1-5.26-5.35c0-6.4,8-7.89,15.25-9.3Z"/><path class="cls-1" d="M396,117.41c-5.17-.17-8.59,1.24-10.7,4a18.23,18.23,0,0,0-11.22-4c-11.84,0-18,7.9-18,15.88,0,5.52,3,9,6.75,12.1-2,.61-7.1,3.94-7.1,8.33,0,4.91,4.65,6.05,6.75,7.36v.18a8,8,0,0,0-8.24,8.41c0,7.19,8.07,10.88,20.34,10.88a36.46,36.46,0,0,0,7.37-.7v15h-.17c-2.2-2.9-7.37-5.08-11.05-5.08-11.75,0-18.24,11.22-18.24,22.45,0,14.2,6.13,24.9,18.24,24.9,4.91,0,8.5-2,12.36-5.79l.53,4.91h9.21v-62a10.82,10.82,0,0,0,2.88-7.17c0-18.24-30-8.24-30-15.61,0-2.63,3.77-2.8,8.5-2.8,11.4,0,17.19-6.14,17.19-14.73a13.33,13.33,0,0,0-2.46-8.07c1.68-1,4.48-1,7-1Zm-14,106.9c-2.28,1.76-3.77,4-8.42,4-6.49,0-10.17-5.26-10.17-14.91s3.68-14.9,10.17-14.9c3.51,0,6.23,1.84,8.42,3.85ZM372,163c10.53,0,13.77,3.16,13.77,5.26,0,1.58-2.37,5.09-9.38,5.09-9.12,0-12.1-1.58-12.1-5.09C364.29,166.35,366,163,372,163Zm2-22.45a7.54,7.54,0,1,1,7.45-7.54A7.51,7.51,0,0,1,374,140.56Z"/><path class="cls-2" d="M68.93,0a68.93,68.93,0,1,0,68.93,68.93A68.93,68.93,0,0,0,68.93,0ZM65.59,91.73H54.72V62.09C54.72,56,52.79,54,49.11,54a13.87,13.87,0,0,0-10.18,4.83V91.73H28.06V46.13h10V51c4-2.8,8.68-5.79,14-5.79,9.12,0,13.5,6,13.5,15.26Zm27.55.88c-12.37,0-19.82-9.21-19.82-23.68s7.45-23.68,19.82-23.68c8.59,0,15.44,4.57,18,12.19l-9,3.52C100.33,57.09,98.4,54,93.14,54c-6,0-9,4.74-9,14.91s2.9,14.91,9.3,14.91c4.74,0,7.45-3.24,9.65-7.28l8.24,4.65C107,89.37,101.47,92.7,93.14,92.61Z"/><line class="cls-3" x1="439.53" y1="281.74" x2="2.15" y2="281.74"/></svg>