<svg width="325" height="64" viewBox="0 0 325 64" fill="none" xmlns="http://www.w3.org/2000/svg">
<path d="M18.4279 0C8.24673 0 0 8.26793 0 18.4753C0 28.6826 8.24673 36.9505 18.4279 36.9505C28.609 36.9505 36.8558 28.6826 36.8558 18.4753C36.8558 8.26793 28.609 0 18.4279 0ZM17.6134 24.5997H14.6609V16.6379C14.6609 15.0048 14.1518 14.4944 13.1337 14.4944C11.9119 14.4944 10.8938 15.2089 10.3848 15.8213V24.5997H7.53405V12.3509H10.1811V13.6778C11.3011 12.9633 12.5228 12.1467 13.9482 12.1467C16.3916 12.1467 17.5116 13.7799 17.5116 16.2296V24.5997H17.6134ZM24.9438 24.8038C21.6858 24.8038 19.6496 22.354 19.6496 18.4753C19.6496 14.5965 21.6858 12.1467 24.9438 12.1467C27.2855 12.1467 29.1181 13.3716 29.729 15.4131L27.2855 16.3317C26.7764 15.311 26.2674 14.4944 24.9438 14.4944C23.3148 14.4944 22.5003 15.7193 22.5003 18.4753C22.5003 21.2312 23.3148 22.4561 24.9438 22.4561C26.1655 22.4561 26.98 21.5375 27.4891 20.5167L29.729 21.7416C28.609 23.9872 27.1837 24.8038 24.9438 24.8038Z" fill="white"/>
<path d="M57.4222 24.7018V7.65557H54.3679V19.2919H54.266L47.6483 7.65557H44.1867V24.7018H47.241V12.5551H47.3429L54.266 24.7018H57.4222Z" fill="white"/>
<path d="M63.1236 12.453H60.1711V24.7018H63.1236V12.453Z" fill="white"/>
<path d="M63.1236 7.45142H60.1711V10.2074H63.1236V7.45142Z" fill="white"/>
<path d="M87.9656 12.2489C86.5403 12.2489 85.624 12.5551 85.1149 13.3717C84.4022 12.7592 83.1805 12.2489 82.0606 12.2489C78.9044 12.2489 77.2754 14.3924 77.2754 16.5359C77.2754 18.067 78.0899 18.9857 79.108 19.8023C78.599 20.0064 77.1736 20.823 77.1736 22.0479C77.1736 23.3748 78.3954 23.6811 79.0062 23.9873C77.9881 23.9873 76.7664 24.7018 76.7664 26.2329C76.7664 26.9474 77.0718 27.5598 77.6827 28.0702V44.1978H80.6352V29.0909C81.1443 29.193 81.6533 29.193 82.2642 29.193C86.133 29.193 87.9656 27.3557 87.9656 25.5184C87.9656 20.6189 79.9225 23.2728 79.9225 21.3334C79.9225 20.6189 80.9406 20.6189 82.1624 20.6189C85.2167 20.6189 86.7439 18.9857 86.7439 16.638C86.7439 15.7194 86.4385 15.0048 86.133 14.4945C86.5403 14.1883 87.3548 14.1883 88.0674 14.1883V12.2489H87.9656ZM81.5515 24.4976C84.4022 24.4976 85.2167 25.3142 85.2167 25.9267C85.2167 26.335 84.6059 27.2536 82.6714 27.2536C80.228 27.2536 79.4135 26.8453 79.4135 25.9267C79.4135 25.4163 79.9225 24.4976 81.5515 24.4976ZM82.0606 18.4753C80.8388 18.4753 79.9225 17.5567 79.9225 16.4339C79.9225 15.3111 80.8388 14.3924 82.0606 14.3924C83.1805 14.3924 84.0968 15.3111 84.0968 16.4339C84.0968 17.5567 83.1805 18.4753 82.0606 18.4753Z" fill="white"/>
<path d="M98.3504 22.9665V17.1484C98.3504 13.4737 96.925 12.2489 93.6671 12.1468C91.8345 12.1468 89.9001 13.0654 89.0856 14.3924L90.9182 15.8214C91.529 15.0048 92.2417 14.2903 93.5653 14.2903C94.5834 14.2903 95.3979 14.8007 95.3979 15.7194V16.7401C90.6127 17.3525 88.3729 18.7816 88.3729 21.5375C88.3729 23.1707 89.4928 24.8039 91.7327 24.8039C93.2598 24.8039 94.3798 24.2935 95.6015 23.4769L95.8051 24.4976H98.6558C98.4522 24.1914 98.3504 23.579 98.3504 22.9665ZM95.4997 21.5375C94.8888 22.0479 93.7689 22.8645 92.8526 22.8645C92.0381 22.8645 91.4272 22.3541 91.4272 21.4355C91.4272 19.7002 93.5653 19.2919 95.4997 18.8836V21.5375Z" fill="white"/>
<path d="M75.0356 22.9665V17.1484C75.0356 13.4737 73.6102 12.2489 70.3522 12.1468C68.5196 12.1468 66.5852 13.0654 65.7707 14.3924L67.7052 15.8214C68.316 15.0048 69.0287 14.2903 70.3522 14.2903C71.3704 14.2903 72.1849 14.8007 72.1849 15.7194V16.7401C67.3997 17.3525 65.1599 18.7816 65.1599 21.5375C65.1599 23.1707 66.2798 24.8039 68.5196 24.8039C70.0468 24.8039 71.1667 24.2935 72.3885 23.4769L72.5921 24.4976H75.4428C75.1374 24.1914 75.0356 23.579 75.0356 22.9665ZM72.083 21.5375C71.4722 22.0479 70.3522 22.8645 69.4359 22.8645C68.6215 22.8645 68.0106 22.3541 68.0106 21.4355C68.0106 19.7002 70.1486 19.2919 72.083 18.8836V21.5375Z" fill="white"/>
<path d="M106.801 15.3111C107.004 15.3111 107.208 15.3111 107.31 15.3111V12.2489C105.579 12.2489 104.561 13.1675 103.848 14.5965V12.453H101.201V24.7018H104.154V17.2505C104.052 16.9442 105.274 15.3111 106.801 15.3111Z" fill="white"/>
<path d="M117.695 22.9665V17.1484C117.695 13.4737 116.269 12.2489 113.011 12.1468C111.179 12.1468 109.244 13.0654 108.43 14.3924L110.364 15.8214C110.975 15.0048 111.688 14.2903 113.011 14.2903C114.029 14.2903 114.844 14.8007 114.844 15.7194V16.7401C110.059 17.3525 107.819 18.7816 107.819 21.5375C107.819 23.1707 108.939 24.8039 111.179 24.8039C112.706 24.8039 113.826 24.2935 114.946 23.4769L115.149 24.4976H118C117.695 24.1914 117.695 23.579 117.695 22.9665ZM114.742 21.5375C114.131 22.0479 113.011 22.8645 112.095 22.8645C111.28 22.8645 110.67 22.3541 110.67 21.4355C110.67 19.7002 112.808 19.2919 114.742 18.8836V21.5375Z" fill="white"/>
<path d="M42.965 35.7257C42.965 41.3397 45.5103 44.504 49.7863 44.504C52.9425 44.504 55.0805 42.9729 56.0986 40.0128L53.0443 39.1962C52.128 41.2377 51.2117 41.748 49.6845 41.748C47.241 41.748 46.0193 39.7066 46.1211 35.7257C46.1211 31.7449 47.4447 29.7034 49.5827 29.7034C51.2117 29.7034 52.2298 30.7241 52.6371 32.1531L55.5896 31.4386C54.7751 28.3764 52.9425 26.9474 49.6845 26.9474C45.5103 26.9474 42.965 30.1117 42.965 35.7257Z" fill="white"/>
<path d="M62.92 31.7449C59.5602 31.7449 57.6258 34.1946 57.6258 38.0734C57.6258 41.9522 59.662 44.4019 62.92 44.4019C66.2798 44.4019 68.2142 41.9522 68.2142 38.0734C68.2142 34.1946 66.178 31.7449 62.92 31.7449ZM62.92 42.0543C61.291 42.0543 60.4765 40.7273 60.4765 38.0734C60.4765 35.3174 61.291 34.0925 62.92 34.0925C64.549 34.0925 65.3635 35.4195 65.3635 38.0734C65.2617 40.8294 64.549 42.0543 62.92 42.0543Z" fill="white"/>
<path d="M73.8138 27.1516H70.8613V44.1978H73.8138V27.1516Z" fill="white"/>
<path d="M93.5653 37.3589C93.5653 34.3988 91.7327 31.6428 88.5765 31.7448C85.2167 31.7448 83.2823 34.1946 83.2823 38.0734C83.2823 41.9522 85.3185 44.4019 88.4747 44.4019C90.8164 44.4019 92.4453 43.6874 93.5653 41.8501L91.4272 40.5232C90.7145 41.3397 90.1037 41.9522 88.6783 41.9522C87.3548 41.9522 86.133 40.9314 86.133 38.3796H93.5653V37.3589ZM86.2348 36.5423C86.2348 34.807 87.1511 33.8884 88.5765 33.8884C90.0019 33.8884 90.9182 34.9091 90.9182 36.5423H86.2348Z" fill="white"/>
<path d="M118 37.3589C118 34.3988 116.167 31.6428 113.011 31.7448C109.651 31.7448 107.717 34.1946 107.717 38.0734C107.717 41.9522 109.753 44.4019 112.909 44.4019C115.251 44.4019 116.88 43.6874 118 41.8501L115.862 40.5232C115.149 41.3397 114.538 41.9522 113.113 41.9522C111.79 41.9522 110.568 40.9314 110.568 38.3796H118V37.3589ZM110.568 36.5423C110.568 34.807 111.484 33.8884 112.909 33.8884C114.335 33.8884 115.251 34.9091 115.251 36.5423H110.568Z" fill="white"/>
<path d="M42.965 55.2217C42.965 60.8357 45.5103 64 49.7863 64C52.9425 64 55.0805 62.4689 56.0986 59.5088L53.0443 58.6922C52.128 60.7337 51.2117 61.244 49.6845 61.244C47.241 61.244 46.0193 59.2026 46.1211 55.2217C46.1211 51.2408 47.4447 49.1994 49.5827 49.1994C51.2117 49.1994 52.2298 50.2201 52.6371 51.6491L55.5896 50.9346C54.7751 47.8724 52.9425 46.4434 49.6845 46.4434C45.5103 46.4434 42.965 49.6077 42.965 55.2217Z" fill="white"/>
<path d="M67.0943 61.9585V56.1404C67.0943 52.4657 65.6689 51.2408 62.411 51.1388C60.5783 51.1388 58.5421 52.0574 57.8294 53.3844L59.7639 54.8134C60.3747 53.9968 61.0874 53.2823 62.411 53.2823C63.4291 53.2823 64.2436 53.7927 64.2436 54.7113V55.7321C59.4584 56.3445 57.2186 57.7735 57.2186 60.5295C57.2186 62.1627 58.3385 63.7959 60.5783 63.7959C62.1055 63.7959 63.2254 63.2855 64.4472 62.4689L64.6508 63.4896H67.5015C67.0943 63.1834 67.0943 62.571 67.0943 61.9585ZM64.1418 60.4274C63.5309 60.9378 62.411 61.7544 61.4947 61.7544C60.6802 61.7544 60.0693 61.244 60.0693 60.3254C60.0693 58.5901 62.2073 58.1818 64.1418 57.7735V60.4274Z" fill="white"/>
<path d="M70.2504 63.6938H73.203V54.8134C73.712 54.201 74.6283 53.4865 75.9519 53.4865C76.97 53.4865 77.479 53.9968 77.479 55.63V63.5917H80.4316V55.2217C80.4316 52.6699 79.2099 51.1388 76.7664 51.1388C75.341 51.1388 74.1193 51.9554 72.9993 52.6699V51.3429H70.2504V63.6938Z" fill="white"/>
<path d="M92.4453 61.9585V56.1404C92.4453 52.4657 91.02 51.2408 87.762 51.1388C85.9294 51.1388 83.995 52.0574 83.1805 53.3844L85.1149 54.8134C85.7258 53.9968 86.4385 53.2823 87.762 53.2823C88.7801 53.2823 89.5946 53.7927 89.5946 54.7113V55.7321C84.8095 56.3445 82.5696 57.7735 82.5696 60.5295C82.5696 62.1627 83.6896 63.7959 85.9294 63.7959C87.4566 63.7959 88.5765 63.2855 89.6964 62.4689L89.9001 63.4896H92.649C92.4453 63.1834 92.4453 62.571 92.4453 61.9585ZM89.4928 60.4274C88.8819 60.9378 87.762 61.7544 86.8457 61.7544C86.0312 61.7544 85.4203 61.244 85.4203 60.3254C85.4203 58.5901 87.5584 58.1818 89.4928 57.7735V60.4274Z" fill="white"/>
<path d="M117.796 61.9585V56.1404C117.796 52.4657 116.371 51.2408 113.113 51.1388C111.28 51.1388 109.346 52.0574 108.532 53.3844L110.364 54.8134C110.975 53.9968 111.688 53.2823 113.011 53.2823C114.029 53.2823 114.844 53.7927 114.844 54.7113V55.7321C110.059 56.3445 107.819 57.7735 107.819 60.5295C107.819 62.1627 108.939 63.7959 111.179 63.7959C112.706 63.7959 113.826 63.2855 114.946 62.4689L115.149 63.4896H118C117.796 63.1834 117.796 62.571 117.796 61.9585ZM114.844 60.4274C114.233 60.9378 113.113 61.7544 112.197 61.7544C111.382 61.7544 110.771 61.244 110.771 60.3254C110.771 58.5901 112.909 58.1818 114.844 57.7735V60.4274Z" fill="white"/>
<path d="M106.495 31.7449C105.07 31.7449 104.154 32.0511 103.645 32.8677C102.932 32.2552 101.71 31.7449 100.59 31.7449C97.4341 31.7449 95.8051 33.8884 95.8051 36.0319C95.8051 37.563 96.6196 38.4817 97.6377 39.2983C97.1287 39.5024 95.7033 40.319 95.7033 41.5439C95.7033 42.8708 96.925 43.1771 97.5359 43.4833C96.5178 43.4833 95.2961 44.1978 95.2961 45.7289C95.2961 47.6683 97.4341 48.689 100.794 48.689C101.507 48.689 102.219 48.5869 102.728 48.4849V52.5678C102.117 51.7512 100.794 51.2409 99.7758 51.2409C96.6196 51.2409 94.8888 54.303 94.8888 57.2632C94.8888 61.0399 96.5178 64 99.7758 64C101.099 64 102.016 63.4896 103.136 62.4689L103.237 63.7959H105.681V47.0558C106.19 46.4434 106.495 45.831 106.495 45.1165C106.495 40.2169 98.4522 42.8708 98.4522 40.9314C98.4522 40.2169 99.4703 40.2169 100.692 40.2169C103.746 40.2169 105.274 38.5838 105.274 36.2361C105.274 35.3174 104.968 34.6029 104.663 34.0925C105.07 33.7863 105.884 33.7863 106.597 33.7863V31.7449H106.495ZM102.728 60.5295C102.117 61.0399 101.71 61.6523 100.488 61.6523C98.7576 61.6523 97.7395 60.2233 97.7395 57.6715C97.7395 55.1196 98.7576 53.6906 100.488 53.6906C101.405 53.6906 102.117 54.201 102.728 54.7113V60.5295ZM100.081 43.9936C102.932 43.9936 103.746 44.8102 103.746 45.4227C103.746 45.831 103.136 46.7496 101.201 46.7496C98.7577 46.7496 97.9432 46.3413 97.9432 45.4227C97.9432 44.9123 98.4522 43.9936 100.081 43.9936ZM100.59 37.9713C99.3685 37.9713 98.4522 37.0527 98.4522 35.9299C98.4522 34.8071 99.3685 33.8884 100.59 33.8884C101.71 33.8884 102.626 34.8071 102.626 35.9299C102.626 37.0527 101.71 37.9713 100.59 37.9713Z" fill="white"/>
<path fill-rule="evenodd" clip-rule="evenodd" d="M138 64V0H139V64H138Z" fill="white" fill-opacity="0.5"/>
<path fill-rule="evenodd" clip-rule="evenodd" d="M202.463 12H324.036V52H202.463V12ZM222.035 24.2794C222.035 18.7931 225.185 16.6807 229.145 16.6807V16.7263C233.181 16.7263 236.24 18.7931 236.24 24.325V27.1974C236.24 32.6685 233.105 34.7962 229.145 34.7962C225.185 34.7962 222.035 32.7293 222.035 27.1974V24.2794ZM229.145 31.2703C231.163 31.2703 232.111 30.0545 232.111 27.1974L232.096 24.325C232.096 21.4679 231.148 20.2521 229.13 20.2521C227.111 20.2521 226.179 21.4679 226.179 24.325V27.1974C226.179 30.0241 227.127 31.2703 229.145 31.2703ZM233.35 40.556C232.98 40.5381 232.611 40.6022 232.269 40.7437C231.928 40.8852 231.622 41.1006 231.374 41.3742C231.127 41.6478 230.944 41.9728 230.839 42.3254C230.733 42.6781 230.708 43.0497 230.766 43.4132V44.4618C230.707 44.8307 230.733 45.2079 230.842 45.5653C230.95 45.9227 231.139 46.2511 231.393 46.5259C231.648 46.8007 231.961 47.0147 232.311 47.1521C232.66 47.2894 233.036 47.3464 233.411 47.319C234.94 47.319 236.056 46.5287 236.056 44.4618V43.4132C236.056 41.3463 234.894 40.556 233.411 40.556H233.35ZM234.527 44.4618C234.527 45.5257 234.16 45.9816 233.411 45.9816C232.662 45.9816 232.31 45.5257 232.31 44.4618V43.4132C232.31 42.3494 232.662 41.8934 233.411 41.8934C234.16 41.8934 234.527 42.3494 234.527 43.4132V44.4618ZM240.827 46.012H239.298C238.885 46.012 238.732 45.8752 238.732 45.4041V40.8752C238.728 40.828 238.708 40.7836 238.674 40.7501C238.64 40.7167 238.596 40.6963 238.548 40.6928H237.386C237.338 40.6928 237.291 40.712 237.257 40.7462C237.222 40.7804 237.203 40.8268 237.203 40.8752V45.4345C237.203 47.0606 238.227 47.3494 239.374 47.3494C239.886 47.3494 240.397 47.3088 240.903 47.2278C241.025 47.2278 241.087 47.2278 241.087 47.0454V46.1943C241.087 46.146 241.067 46.0996 241.033 46.0654C240.998 46.0312 240.952 46.012 240.903 46.012H240.827ZM246.82 40.556C246.446 40.5286 246.07 40.5856 245.72 40.7229C245.371 40.8603 245.057 41.0743 244.803 41.3491C244.549 41.6239 244.36 41.9523 244.251 42.3097C244.143 42.6671 244.117 43.0444 244.175 43.4132V44.4618C244.117 44.8307 244.143 45.2079 244.251 45.5653C244.36 45.9227 244.549 46.2511 244.803 46.5259C245.057 46.8007 245.371 47.0147 245.72 47.1521C246.07 47.2894 246.446 47.3464 246.82 47.319C248.349 47.319 249.466 46.5287 249.466 44.4618V43.4132C249.466 41.3463 248.304 40.556 246.82 40.556ZM247.937 44.4618C247.937 45.5257 247.57 45.9816 246.82 45.9816C246.071 45.9816 245.719 45.5257 245.719 44.4618V43.4132C245.719 42.3494 246.071 41.8934 246.82 41.8934C247.57 41.8934 247.937 42.3494 247.937 43.4132V44.4618ZM263.242 40.632H263.854C263.939 40.632 264.021 40.6657 264.081 40.7255C264.141 40.7854 264.175 40.8665 264.175 40.9512V47.1214C264.175 47.243 264.022 47.243 264.022 47.243H262.845C262.822 47.2411 262.801 47.2348 262.781 47.2246C262.762 47.2144 262.744 47.2004 262.73 47.1834C262.716 47.1665 262.705 47.1469 262.698 47.1258C262.692 47.1047 262.69 47.0826 262.692 47.0606V43.3524L261.881 44.8721C261.856 44.9187 261.818 44.9575 261.773 44.9843C261.727 45.0111 261.674 45.0249 261.621 45.0241H260.903C260.847 45.0278 260.791 45.0154 260.743 44.9884C260.694 44.9615 260.654 44.9211 260.627 44.8721L259.832 43.3524V47.0606C259.832 47.1518 259.695 47.243 259.695 47.243H258.502C258.485 47.2451 258.467 47.2436 258.451 47.2385C258.434 47.2333 258.419 47.2247 258.406 47.2132C258.393 47.2017 258.382 47.1875 258.375 47.1717C258.368 47.1559 258.364 47.1387 258.364 47.1214V40.936C258.362 40.8941 258.369 40.8522 258.384 40.8132C258.4 40.7742 258.424 40.739 258.454 40.71C258.485 40.6811 258.521 40.6591 258.561 40.6457C258.601 40.6322 258.644 40.6275 258.686 40.632H259.527C259.608 40.629 259.688 40.6506 259.756 40.6941C259.824 40.7375 259.878 40.8007 259.909 40.8752L261.315 43.4132C261.361 43.4664 261.358 43.493 261.356 43.5063C261.355 43.5102 261.355 43.5129 261.356 43.5149C261.358 43.5196 261.369 43.5196 261.407 43.5196C261.514 43.5196 261.514 43.4132 261.514 43.4132L262.875 40.8752C262.907 40.8043 262.958 40.7439 263.023 40.7008C263.088 40.6578 263.164 40.6339 263.242 40.632ZM254.542 40.6776C253.97 40.5963 253.392 40.5607 252.814 40.5712C251.667 40.5712 250.628 40.8448 250.628 42.4709V47.0302C250.631 47.0774 250.652 47.1218 250.685 47.1553C250.719 47.1887 250.764 47.2091 250.811 47.2126H251.973C252.021 47.2091 252.065 47.1887 252.099 47.1553C252.133 47.1218 252.153 47.0774 252.157 47.0302V44.4618H254.465C254.489 44.4639 254.512 44.4612 254.535 44.4537C254.557 44.4463 254.577 44.4343 254.594 44.4186C254.612 44.4028 254.625 44.3837 254.635 44.3623C254.644 44.341 254.649 44.3179 254.649 44.2946V43.4436C254.649 43.3952 254.63 43.3488 254.595 43.3146C254.561 43.2804 254.514 43.2612 254.465 43.2612H252.172V42.4709C252.172 41.9998 252.325 41.863 252.738 41.863H254.557C254.606 41.863 254.653 41.8438 254.687 41.8096C254.721 41.7754 254.741 41.729 254.741 41.6807V40.8752C254.741 40.7536 254.741 40.708 254.557 40.6928L254.542 40.6776ZM269.802 24.325V27.1974C269.802 32.6685 266.652 34.7962 262.692 34.7962C258.731 34.7962 255.597 32.7293 255.597 27.1974V24.325C255.597 18.8387 258.731 16.7263 262.692 16.7263C266.652 16.7263 269.802 18.7931 269.802 24.325ZM259.817 24.325V27.1974C259.817 30.0241 260.673 31.2703 262.768 31.2703C264.863 31.2703 265.826 30.0545 265.826 27.1974V24.325C265.826 21.4679 264.786 20.2521 262.768 20.2521C260.75 20.2521 259.817 21.4679 259.817 24.325ZM210.521 43.5652L209.375 42.9573C208.885 42.6989 208.778 42.5773 208.778 42.3342C208.778 42.091 208.962 41.863 209.466 41.863C209.925 41.863 210.913 41.9258 211.274 41.9486L211.362 41.9542C211.485 41.9542 211.515 41.9542 211.515 41.8174V40.8752C211.515 40.8374 211.501 40.8009 211.476 40.7728C211.451 40.7447 211.415 40.727 211.378 40.7232C210.759 40.5957 210.129 40.5295 209.497 40.5257C207.754 40.5257 207.203 41.2855 207.203 42.2582C207.193 42.6132 207.288 42.9634 207.475 43.2657C207.663 43.5681 207.935 43.8095 208.258 43.9603L209.497 44.6898C209.956 44.9633 210.078 45.1001 210.078 45.3585C210.078 45.6168 209.894 45.9816 209.283 45.9816C208.931 45.9816 207.953 45.9056 207.586 45.8752C207.494 45.8752 207.433 45.8752 207.433 46.0424V46.9542C207.433 47.0606 207.524 47.1062 207.601 47.1366C208.155 47.2769 208.726 47.3434 209.298 47.3342C211.118 47.3342 211.745 46.3311 211.745 45.3889C211.749 45.0018 211.636 44.6223 211.421 44.2998C211.205 43.9773 210.897 43.7266 210.537 43.5804L210.521 43.5652ZM318.914 27.1974C318.914 32.6685 315.764 34.7962 311.804 34.7962C307.844 34.7962 304.709 32.7293 304.709 27.1974V24.325C304.709 18.8387 307.844 16.7263 311.804 16.7263C315.764 16.7263 318.914 18.7931 318.914 24.325V27.1974ZM311.697 20.2521C309.694 20.2521 308.746 21.4679 308.746 24.325V27.1974C308.746 30.0241 309.602 31.2703 311.697 31.2703C313.792 31.2703 314.755 30.0545 314.755 27.1974V24.325C314.755 21.4679 313.7 20.2521 311.697 20.2521ZM215.934 34.1275V20.2521H219.818C219.881 20.2562 219.945 20.2476 220.005 20.2267C220.065 20.2058 220.12 20.1731 220.167 20.1306C220.215 20.088 220.253 20.0365 220.279 19.979C220.306 19.9216 220.32 19.8594 220.322 19.7962V17.3494C220.32 17.2861 220.306 17.2239 220.279 17.1665C220.253 17.109 220.215 17.0575 220.167 17.015C220.12 16.9724 220.065 16.9397 220.005 16.9188C219.945 16.898 219.881 16.8893 219.818 16.8934H207.922C207.86 16.8914 207.798 16.9016 207.739 16.9234C207.681 16.9452 207.628 16.9783 207.582 17.0206C207.537 17.0629 207.5 17.1138 207.475 17.1702C207.449 17.2266 207.435 17.2875 207.433 17.3494V19.7962C207.435 19.858 207.449 19.9189 207.475 19.9753C207.5 20.0317 207.537 20.0826 207.582 20.1249C207.628 20.1673 207.681 20.2003 207.739 20.2221C207.798 20.2439 207.86 20.2541 207.922 20.2521H211.836V34.1275C211.834 34.1906 211.845 34.2535 211.868 34.3124C211.891 34.3714 211.925 34.4251 211.97 34.4705C212.014 34.5158 212.067 34.5519 212.125 34.5765C212.184 34.6012 212.247 34.6138 212.31 34.6138H215.475C215.539 34.6138 215.602 34.6012 215.66 34.5765C215.719 34.5519 215.772 34.5158 215.816 34.4705C215.86 34.4251 215.895 34.3714 215.918 34.3124C215.941 34.2535 215.951 34.1906 215.949 34.1275H215.934ZM225.919 40.7229C226.269 40.5856 226.645 40.5286 227.02 40.556C227.394 40.5286 227.77 40.5856 228.12 40.7229C228.469 40.8603 228.783 41.0743 229.037 41.3491C229.291 41.6239 229.48 41.9523 229.589 42.3097C229.697 42.6671 229.723 43.0444 229.665 43.4132V44.4618C229.705 44.8308 229.666 45.2041 229.551 45.5573C229.437 45.9105 229.248 46.2357 228.999 46.5118C228.749 46.788 228.444 47.0088 228.103 47.16C227.762 47.3112 227.393 47.3893 227.02 47.3893C226.646 47.3893 226.277 47.3112 225.936 47.16C225.595 47.0088 225.29 46.788 225.04 46.5118C224.791 46.2357 224.602 45.9105 224.488 45.5573C224.373 45.2041 224.334 44.8308 224.374 44.4618V43.4132C224.316 43.0444 224.342 42.6671 224.45 42.3097C224.559 41.9523 224.748 41.6239 225.002 41.3491C225.256 41.0743 225.57 40.8603 225.919 40.7229ZM227.02 45.9816C227.769 45.9816 228.136 45.5256 228.136 44.4618V43.4132C228.136 42.3494 227.769 41.8934 227.02 41.8934C226.27 41.8934 225.919 42.3494 225.919 43.4132V44.4618C225.919 45.5256 226.27 45.9816 227.02 45.9816ZM216.637 40.708C216.203 40.5992 215.755 40.5481 215.307 40.556C214.936 40.527 214.564 40.5814 214.217 40.7152C213.87 40.849 213.558 41.0587 213.304 41.3289C213.049 41.599 212.86 41.9225 212.749 42.2755C212.638 42.6284 212.608 43.0017 212.662 43.3676V44.4922C212.608 44.8588 212.638 45.2326 212.749 45.5861C212.86 45.9397 213.05 46.264 213.303 46.5353C213.557 46.8065 213.869 47.0177 214.216 47.1533C214.563 47.2889 214.936 47.3455 215.307 47.319C215.755 47.3269 216.203 47.2758 216.637 47.167C216.76 47.167 216.836 47.091 216.836 46.9694V46.1032C216.838 46.08 216.836 46.0566 216.828 46.0345C216.821 46.0124 216.809 45.9922 216.793 45.975C216.777 45.9578 216.758 45.9441 216.736 45.9348C216.715 45.9255 216.691 45.9207 216.668 45.9208C216.516 45.9208 216.332 45.9364 216.131 45.9535H216.131H216.131C215.888 45.9741 215.621 45.9968 215.353 45.9968C214.864 45.9968 214.237 45.6776 214.237 44.477V43.3524C214.237 42.1822 214.726 41.8326 215.353 41.8326H216.668C216.691 41.835 216.714 41.8324 216.735 41.8248C216.757 41.8172 216.776 41.805 216.792 41.789C216.808 41.7729 216.821 41.7535 216.828 41.7322C216.836 41.7108 216.839 41.688 216.836 41.6655V40.8752C216.836 40.7536 216.836 40.708 216.637 40.6776V40.708ZM221.836 40.632H222.998L222.937 40.708C222.96 40.7059 222.984 40.7087 223.006 40.7161C223.028 40.7236 223.049 40.7355 223.066 40.7513C223.083 40.767 223.097 40.7862 223.106 40.8075C223.116 40.8288 223.121 40.8519 223.12 40.8752V47.0606C223.12 47.109 223.101 47.1554 223.067 47.1896C223.032 47.2238 222.986 47.243 222.937 47.243H221.775C221.726 47.243 221.68 47.2238 221.645 47.1896C221.611 47.1554 221.591 47.109 221.591 47.0606V44.4922H219.451V47.1366C219.451 47.185 219.432 47.2313 219.397 47.2655C219.363 47.2997 219.316 47.319 219.267 47.319H218.09C218.044 47.3151 218.001 47.2943 217.97 47.2605C217.939 47.2267 217.922 47.1824 217.922 47.1366V40.8752C217.922 40.8309 217.94 40.7883 217.971 40.757C218.003 40.7256 218.045 40.708 218.09 40.708H219.267C219.291 40.7059 219.314 40.7087 219.336 40.7161C219.359 40.7236 219.379 40.7355 219.396 40.7513C219.414 40.767 219.427 40.7862 219.437 40.8075C219.446 40.8288 219.451 40.8519 219.451 40.8752V43.246H221.591V40.8752C221.559 40.8429 221.541 40.7992 221.541 40.7536C221.541 40.708 221.559 40.6643 221.591 40.632C221.624 40.5998 221.668 40.5817 221.714 40.5817C221.76 40.5817 221.804 40.5998 221.836 40.632ZM245.612 28.094L248.839 34.1731C248.85 34.195 248.86 34.2169 248.871 34.2387L248.872 34.2406L248.873 34.2421L248.873 34.243C248.98 34.4607 249.078 34.6594 249.313 34.6594H252.982C253.258 34.6594 253.349 34.5378 253.349 34.3706C253.343 34.28 253.317 34.1918 253.273 34.1123L249.649 27.3798C250.603 27.0105 251.413 26.3489 251.963 25.4908C252.513 24.6327 252.774 23.6229 252.707 22.6077V22.3038C252.707 18.0788 249.557 16.7263 245.475 16.7263C243.849 16.7238 242.225 16.8253 240.613 17.0302C239.863 17.1518 239.527 17.3646 239.527 18.17V34.1275C239.525 34.1906 239.536 34.2535 239.559 34.3124C239.581 34.3714 239.616 34.4251 239.66 34.4705C239.704 34.5158 239.757 34.5519 239.816 34.5765C239.874 34.6012 239.937 34.6138 240.001 34.6138H243.059C243.189 34.6138 243.313 34.5626 243.405 34.4714C243.497 34.3802 243.548 34.2565 243.548 34.1275V28.0484H245.245L245.612 28.094ZM244.528 20.1706L244.528 20.1706L244.528 20.1706C244.93 20.1509 245.346 20.1305 245.521 20.1305C247.539 20.1305 248.67 20.7992 248.67 22.2582V22.6381C248.67 24.2643 247.875 24.9026 245.352 24.9026H243.655V20.2065C243.795 20.2065 244.155 20.1889 244.528 20.1706ZM287.339 17.3342V33.7019H287.294C287.286 33.9465 287.182 34.1785 287.005 34.3486C286.828 34.5188 286.592 34.6139 286.346 34.6138H284.006C283.745 34.6354 283.484 34.5752 283.259 34.4417C283.034 34.3081 282.857 34.1079 282.752 33.8691L277.248 24.477C277.192 24.3565 277.17 24.3095 277.134 24.2912C277.111 24.2795 277.082 24.2795 277.034 24.2795C276.912 24.2795 276.912 24.325 276.912 24.477V34.1275C276.914 34.1906 276.903 34.2535 276.88 34.3124C276.857 34.3714 276.822 34.4251 276.778 34.4705C276.734 34.5158 276.681 34.5519 276.623 34.5765C276.564 34.6012 276.501 34.6138 276.438 34.6138H273.609C273.479 34.6138 273.355 34.5626 273.263 34.4714C273.171 34.3802 273.12 34.2565 273.12 34.1275V17.7901C273.12 17.6711 273.143 17.5532 273.19 17.4434C273.236 17.3336 273.304 17.2341 273.389 17.1506C273.475 17.0672 273.576 17.0014 273.687 16.9573C273.798 16.9131 273.917 16.8914 274.037 16.8934H276.453C276.942 16.8934 277.171 17.1214 277.462 17.6229L283.15 27.4557C283.157 27.4681 283.164 27.4795 283.17 27.4902L283.178 27.505C283.186 27.5198 283.194 27.533 283.2 27.5448C283.226 27.593 283.239 27.6163 283.259 27.6276C283.277 27.6381 283.301 27.6381 283.349 27.6381C283.471 27.6381 283.471 27.5925 283.471 27.4253V17.3342C283.473 17.2743 283.487 17.2154 283.512 17.1608C283.537 17.1062 283.572 17.0571 283.616 17.0161C283.66 16.9752 283.712 16.9433 283.768 16.9223C283.825 16.9012 283.885 16.8914 283.945 16.8934H286.85C286.912 16.8893 286.973 16.8976 287.032 16.9177C287.09 16.9378 287.143 16.9694 287.189 17.0105C287.235 17.0516 287.272 17.1015 287.297 17.1571C287.323 17.2127 287.338 17.2729 287.339 17.3342ZM294.22 40.6776C293.654 40.5872 293.081 40.5465 292.508 40.556C291.345 40.556 290.397 40.8752 290.397 42.395V45.4345C290.397 47.0606 291.422 47.3494 292.569 47.3494C293.147 47.3586 293.725 47.3179 294.296 47.2278C294.434 47.2278 294.48 47.2278 294.48 47.0454V46.1943C294.48 46.146 294.461 46.0996 294.426 46.0654C294.392 46.0312 294.345 46.012 294.296 46.012H292.416C291.988 46.012 291.835 45.8752 291.835 45.4041V44.4618H294.159C294.203 44.4618 294.246 44.4442 294.278 44.4129C294.309 44.3815 294.327 44.339 294.327 44.2946V43.4436C294.327 43.3977 294.31 43.3535 294.279 43.3197C294.248 43.2859 294.205 43.265 294.159 43.2612H291.835V42.395C291.835 41.939 291.988 41.787 292.416 41.787H294.22C294.243 41.7892 294.267 41.7864 294.289 41.779C294.311 41.7715 294.332 41.7595 294.349 41.7438C294.366 41.7281 294.38 41.7089 294.389 41.6876C294.399 41.6662 294.404 41.6432 294.404 41.6199V40.8752C294.404 40.7688 294.404 40.7232 294.22 40.708V40.6776ZM287.003 40.556C287.63 40.5599 288.255 40.6261 288.869 40.7536V40.7384C289.021 40.7688 289.021 40.7992 289.021 40.8752V41.7871C289.021 41.9086 288.884 41.9086 288.884 41.9086C288.456 41.8326 287.768 41.8326 287.034 41.8326C286.3 41.8326 285.856 42.1822 285.856 43.3524V44.4618C285.856 45.6928 286.422 45.9816 286.866 45.9816H287.554V43.9451C287.551 43.9219 287.554 43.8985 287.562 43.8765C287.569 43.8544 287.581 43.8341 287.597 43.8169C287.613 43.7998 287.632 43.7861 287.654 43.7767C287.675 43.7674 287.698 43.7626 287.722 43.7627H288.869C288.911 43.7626 288.951 43.7781 288.982 43.8062C289.014 43.8343 289.033 43.8731 289.037 43.9147V46.9238C289.041 46.949 289.04 46.9747 289.034 46.9994C289.027 47.0241 289.016 47.0473 289 47.0673C288.984 47.0874 288.964 47.1039 288.942 47.1158C288.919 47.1278 288.894 47.1348 288.869 47.1366C288.198 47.2638 287.517 47.3248 286.835 47.319C286.471 47.3289 286.11 47.2601 285.776 47.1174C285.442 46.9747 285.143 46.7615 284.9 46.4926C284.657 46.2237 284.476 45.9055 284.369 45.5601C284.263 45.2147 284.233 44.8503 284.281 44.4922V43.398C284.226 43.024 284.258 42.6424 284.373 42.2821C284.488 41.9219 284.684 41.5923 284.946 41.3185C285.209 41.0447 285.53 40.8338 285.886 40.7017C286.243 40.5696 286.625 40.5198 287.003 40.556ZM313.333 40.632H312.278C312.233 40.632 312.19 40.6496 312.159 40.681C312.127 40.7123 312.11 40.7549 312.11 40.7992V44.5682L309.908 40.8752C309.801 40.6928 309.709 40.6016 309.526 40.6016H308.623C308.578 40.6016 308.533 40.6107 308.491 40.6285C308.449 40.6462 308.411 40.6722 308.38 40.7049C308.349 40.7375 308.324 40.7762 308.308 40.8186C308.292 40.8609 308.285 40.906 308.287 40.9512V47.0302C308.287 47.076 308.304 47.1203 308.335 47.1541C308.366 47.1879 308.409 47.2088 308.455 47.2126H309.51C309.534 47.2126 309.558 47.2079 309.581 47.1987C309.603 47.1895 309.623 47.1761 309.64 47.1592C309.657 47.1422 309.671 47.1221 309.68 47.1C309.689 47.0779 309.694 47.0542 309.694 47.0302V43.4588L311.804 46.9542C311.844 47.0404 311.909 47.1126 311.991 47.1615C312.073 47.2103 312.167 47.2334 312.263 47.2278H313.134C313.18 47.2298 313.225 47.2227 313.268 47.2068C313.31 47.1909 313.349 47.1666 313.382 47.1354C313.415 47.1041 313.441 47.0666 313.459 47.025C313.477 46.9834 313.486 46.9386 313.486 46.8934V40.8752C313.486 40.8519 313.481 40.8288 313.472 40.8075C313.462 40.7862 313.449 40.767 313.431 40.7513C313.414 40.7355 313.394 40.7235 313.371 40.7161C313.349 40.7086 313.326 40.7059 313.302 40.708L313.333 40.632ZM305.168 40.556C305.741 40.5465 306.314 40.5872 306.88 40.6776V40.708C307.064 40.7232 307.064 40.7688 307.064 40.8752V41.6199C307.064 41.6432 307.059 41.6662 307.05 41.6876C307.04 41.7089 307.027 41.7281 307.009 41.7438C306.992 41.7595 306.972 41.7715 306.949 41.779C306.927 41.7864 306.904 41.7892 306.88 41.787H305.076C304.648 41.787 304.495 41.939 304.495 42.395V43.2612H306.819C306.865 43.265 306.908 43.2859 306.939 43.3197C306.97 43.3535 306.988 43.3977 306.987 43.4436V44.2946C306.987 44.339 306.97 44.3815 306.938 44.4129C306.907 44.4442 306.864 44.4618 306.819 44.4618H304.495V45.4041C304.495 45.8752 304.648 46.012 305.076 46.012H306.88C306.929 46.012 306.976 46.0312 307.01 46.0654C307.045 46.0996 307.064 46.146 307.064 46.1943V47.0454C307.064 47.2278 307.018 47.2278 306.88 47.2278C306.309 47.3179 305.731 47.3586 305.153 47.3494C304.006 47.3494 302.981 47.0606 302.981 45.4345V42.4557C302.981 40.8448 304.006 40.556 305.168 40.556ZM302.416 16.8934H290.52C290.46 16.8914 290.4 16.9012 290.343 16.9223C290.287 16.9433 290.235 16.9752 290.191 17.0161C290.147 17.0571 290.111 17.1062 290.087 17.1608C290.062 17.2154 290.048 17.2743 290.046 17.3342V19.7962C290.046 19.8573 290.058 19.9179 290.082 19.9742C290.106 20.0306 290.141 20.0815 290.186 20.124C290.23 20.1666 290.282 20.1999 290.34 20.2218C290.397 20.2438 290.458 20.2541 290.52 20.2521H294.434V34.1275C294.434 34.2565 294.486 34.3801 294.577 34.4714C294.669 34.5626 294.794 34.6138 294.923 34.6138H298.043C298.172 34.6138 298.297 34.5626 298.389 34.4714C298.48 34.3801 298.532 34.2565 298.532 34.1275V20.2521H302.416C302.543 20.2563 302.667 20.211 302.761 20.1259C302.855 20.0408 302.912 19.9225 302.92 19.7962V17.3342C302.916 17.2722 302.9 17.2117 302.873 17.156C302.845 17.1003 302.807 17.0506 302.76 17.0096C302.713 16.9687 302.659 16.9373 302.599 16.9174C302.54 16.8974 302.478 16.8893 302.416 16.8934ZM300.504 40.632H301.116C301.201 40.632 301.283 40.6657 301.343 40.7255C301.403 40.7854 301.437 40.8665 301.437 40.9512V47.1214C301.437 47.243 301.284 47.243 301.284 47.243H300.107C300.085 47.2411 300.063 47.2348 300.043 47.2246C300.024 47.2144 300.006 47.2004 299.992 47.1834C299.978 47.1665 299.967 47.1469 299.961 47.1258C299.954 47.1047 299.952 47.0826 299.954 47.0606V43.3524L299.144 44.8721C299.118 44.9187 299.081 44.9575 299.035 44.9843C298.989 45.0111 298.937 45.0249 298.884 45.0241H298.165C298.109 45.0278 298.054 45.0154 298.005 44.9884C297.956 44.9615 297.916 44.9211 297.89 44.8721L297.095 43.3524V47.0606C297.095 47.1518 296.957 47.243 296.957 47.243H295.78C295.627 47.243 295.627 47.2126 295.627 47.1214V40.936C295.624 40.8941 295.631 40.8522 295.647 40.8132C295.662 40.7742 295.686 40.739 295.716 40.71C295.747 40.6811 295.783 40.6591 295.823 40.6457C295.863 40.6322 295.906 40.6275 295.948 40.632H296.789C296.87 40.629 296.95 40.6506 297.018 40.6941C297.087 40.7375 297.14 40.8007 297.171 40.8752L298.547 43.4132C298.593 43.4664 298.589 43.493 298.587 43.5063C298.587 43.5102 298.586 43.5129 298.587 43.5149C298.59 43.5196 298.601 43.5196 298.639 43.5196C298.746 43.5196 298.746 43.4132 298.746 43.4132L300.107 40.8752C300.142 40.8008 300.199 40.7382 300.269 40.695C300.34 40.6519 300.422 40.63 300.504 40.632ZM319.097 40.632H314.663C314.619 40.632 314.576 40.6496 314.544 40.681C314.513 40.7123 314.495 40.7549 314.495 40.7992V41.7263C314.495 41.7706 314.513 41.8131 314.544 41.8445C314.576 41.8758 314.619 41.8934 314.663 41.8934H316.192V47.0606C316.192 47.1064 316.209 47.1507 316.24 47.1845C316.272 47.2183 316.314 47.2392 316.36 47.243H317.538C317.584 47.2392 317.626 47.2183 317.658 47.1845C317.689 47.1507 317.706 47.1064 317.706 47.0606V41.8934H319.235C319.258 41.8955 319.282 41.8928 319.304 41.8853C319.326 41.8779 319.347 41.8659 319.364 41.8502C319.381 41.8344 319.395 41.8153 319.404 41.7939C319.414 41.7726 319.418 41.7495 319.418 41.7263V40.8752C319.418 40.8519 319.414 40.8288 319.404 40.8075C319.395 40.7862 319.381 40.767 319.364 40.7513C319.347 40.7355 319.326 40.7236 319.304 40.7161C319.282 40.7087 319.258 40.7059 319.235 40.708L319.097 40.632ZM282.066 41.0833C282.162 41.2224 282.229 41.3789 282.263 41.5439L283.502 47.0454C283.504 47.0659 283.502 47.0868 283.495 47.1063C283.488 47.1259 283.477 47.1436 283.462 47.1583C283.448 47.1729 283.43 47.184 283.41 47.1908C283.39 47.1976 283.369 47.1998 283.349 47.1974H282.095C282.05 47.1944 282.007 47.1763 281.974 47.1459C281.94 47.1155 281.918 47.0747 281.911 47.0302L281.59 45.5104H279.756L279.434 47.0302C279.428 47.0724 279.409 47.1114 279.378 47.1416C279.348 47.1717 279.309 47.1913 279.266 47.1974H278.012C277.992 47.1998 277.971 47.1976 277.951 47.1908C277.931 47.184 277.914 47.1729 277.899 47.1583C277.884 47.1436 277.873 47.1259 277.866 47.1063C277.859 47.0868 277.857 47.0659 277.86 47.0454L279.205 41.5439C279.45 40.6928 280.107 40.556 280.734 40.556C280.9 40.5204 281.071 40.5177 281.238 40.5482C281.404 40.5786 281.563 40.6416 281.706 40.7334C281.848 40.8253 281.97 40.9442 282.066 41.0833ZM280.658 41.9542L280.122 44.401H281.453L280.902 41.9542C280.898 41.92 280.898 41.8944 280.898 41.8751C280.898 41.8518 280.898 41.8379 280.892 41.8296C280.882 41.8174 280.857 41.8174 280.795 41.8174C280.658 41.8174 280.658 41.863 280.658 41.9542ZM269.588 41.5439C269.505 41.2153 269.314 40.9236 269.045 40.7152C268.776 40.5068 268.445 40.3936 268.104 40.3936C267.764 40.3936 267.432 40.5068 267.164 40.7152C266.895 40.9236 266.704 41.2153 266.621 41.5439L265.291 47.0454C265.289 47.066 265.291 47.0868 265.298 47.1063C265.304 47.1259 265.316 47.1436 265.33 47.1583C265.345 47.1729 265.363 47.184 265.383 47.1908C265.402 47.1976 265.423 47.1998 265.444 47.1974H266.682C266.728 47.1944 266.77 47.1763 266.804 47.1459C266.837 47.1155 266.859 47.0747 266.866 47.0302L267.187 45.5105H268.991L269.312 47.0302C269.319 47.0747 269.341 47.1155 269.374 47.1459C269.408 47.1763 269.451 47.1944 269.496 47.1974H270.75C270.77 47.1998 270.791 47.1976 270.811 47.1908C270.831 47.184 270.848 47.1729 270.863 47.1583C270.878 47.1436 270.889 47.1259 270.896 47.1063C270.903 47.0868 270.905 47.066 270.902 47.0454L269.588 41.5439ZM267.462 44.401L267.997 41.9542C267.997 41.863 267.997 41.8174 268.12 41.8174C268.176 41.8174 268.203 41.8174 268.218 41.831C268.231 41.8435 268.233 41.8674 268.238 41.9135L268.238 41.9138C268.239 41.9258 268.24 41.9392 268.242 41.9542L268.792 44.401H267.462ZM275.841 40.632H276.896V40.708C276.92 40.7059 276.943 40.7086 276.965 40.7161C276.988 40.7235 277.008 40.7355 277.025 40.7513C277.042 40.767 277.056 40.7862 277.066 40.8075C277.075 40.8288 277.08 40.8519 277.08 40.8752V46.8934C277.076 46.9835 277.037 47.0685 276.971 47.1308C276.906 47.1931 276.819 47.2279 276.728 47.2278H275.857C275.759 47.2344 275.662 47.2119 275.577 47.1632C275.493 47.1144 275.425 47.0416 275.383 46.9542L273.227 43.4588V47.0302C273.227 47.0542 273.222 47.0779 273.213 47.1C273.203 47.1221 273.19 47.1422 273.173 47.1592C273.156 47.1761 273.136 47.1895 273.113 47.1987C273.091 47.2079 273.067 47.2126 273.043 47.2126H271.988C271.942 47.2088 271.899 47.1879 271.868 47.1541C271.837 47.1203 271.82 47.076 271.82 47.0302V40.9512C271.818 40.906 271.825 40.8609 271.841 40.8186C271.857 40.7762 271.881 40.7375 271.913 40.7049C271.944 40.6722 271.982 40.6462 272.024 40.6285C272.066 40.6107 272.111 40.6016 272.156 40.6016H273.058C273.227 40.6016 273.318 40.6928 273.425 40.8752L275.658 44.5682V40.7992C275.662 40.7535 275.683 40.7109 275.717 40.68C275.751 40.649 275.795 40.6319 275.841 40.632Z" fill="white"/>
<path fill-rule="evenodd" clip-rule="evenodd" d="M179.251 12H199.244V52H159V12H179.103L178.167 27.1989C177.179 27.4368 176.372 28.0476 175.976 28.8577L175.963 28.8848L175.94 28.9034C175.162 29.5237 174.732 30.4061 174.732 31.376C174.732 31.6693 174.772 31.9542 174.848 32.2269C175.365 30.622 177.11 29.4414 179.184 29.4414C181.124 29.4414 182.778 30.4759 183.405 31.9246C183.438 31.7458 183.455 31.5626 183.455 31.376C183.455 30.4109 183.03 29.6162 182.241 28.8978L182.222 28.8807L182.211 28.8577C181.823 28.0623 181.09 27.4603 180.115 27.2131L179.251 12ZM181.261 28.601C181.282 28.5552 181.263 28.5001 181.219 28.4781L181.217 28.4773L181.212 28.4751L181.195 28.4672C181.181 28.4604 181.159 28.4508 181.131 28.439C181.075 28.4153 180.993 28.3828 180.888 28.3468C180.678 28.2748 180.376 28.1886 180.007 28.1312C179.267 28.0164 178.254 28.0162 177.162 28.476C177.116 28.4953 177.094 28.5491 177.113 28.5961C177.132 28.6432 177.184 28.6657 177.23 28.6463C178.285 28.2022 179.264 28.2021 179.98 28.3133C180.338 28.3688 180.629 28.4521 180.831 28.5214C180.932 28.556 181.01 28.587 181.063 28.6092C181.089 28.6204 181.109 28.6293 181.122 28.6353L181.137 28.6421L181.141 28.6442C181.186 28.6662 181.239 28.6469 181.261 28.601ZM180.676 34.7332L181.719 52H176.903C177.12 47.7559 177.327 43.6846 177.486 40.559L177.783 34.7062L177.784 34.7031C177.784 34.6979 177.785 34.6888 177.788 34.6765C177.792 34.6517 177.8 34.614 177.814 34.5678C177.841 34.475 177.893 34.3507 177.986 34.2265C178.165 33.9879 178.525 33.7148 179.274 33.7148C179.825 33.7148 180.173 33.9734 180.388 34.2346C180.497 34.3669 180.572 34.4999 180.62 34.5998C180.643 34.6495 180.66 34.6903 180.67 34.7178L180.676 34.7332ZM174.854 34.1376C174.854 32.1743 176.76 30.5293 179.183 30.5293C181.605 30.5293 183.512 32.1743 183.512 34.1376C183.512 35.4856 182.613 36.6834 181.266 37.3019L181.107 34.6761L181.106 34.6493L181.098 34.624L181.097 34.6215L181.096 34.6172L181.091 34.6037C181.088 34.5925 181.082 34.5772 181.075 34.5582C181.061 34.5202 181.04 34.4675 181.01 34.405C180.951 34.2805 180.857 34.1143 180.719 33.9473C180.441 33.61 179.98 33.2701 179.274 33.2701C178.405 33.2701 177.912 33.5956 177.642 33.9554C177.511 34.1305 177.438 34.3054 177.399 34.437C177.379 34.503 177.367 34.5588 177.36 34.5995C177.357 34.6198 177.354 34.6365 177.353 34.6488L177.351 34.664L177.351 34.6691L177.351 34.6709L177.35 34.6783L177.214 37.3526C175.804 36.7506 174.854 35.5235 174.854 34.1376ZM177.35 34.6783L177.567 34.6894C177.352 34.6779 177.35 34.6783 177.35 34.6783ZM177.567 34.6894L177.351 34.6709C177.351 34.6709 177.351 34.6723 177.567 34.6894ZM180.891 34.6894L181.107 34.6761C181.107 34.6761 181.107 34.6757 180.891 34.6894Z" fill="white"/>
</svg>
